<svg xmlns="http://www.w3.org/2000/svg" xmlns:xlink="http://www.w3.org/1999/xlink" width="50.1" height="38" viewBox="0 0 50.1 38"><defs><clipPath id="clip-path"><rect id="長方形_3224" width="50.1" height="38" fill="none" data-name="長方形 3224"/></clipPath></defs><g id="アートワーク_57" data-name="アートワーク 57" transform="translate(25.05 19)"><g id="グループ_16634" clip-path="url(#clip-path)" data-name="グループ 16634" transform="translate(-25.05 -19)"><path id="パス_98437" fill="#fff" d="M46.9,14.8l-8.6-12a1.9,1.9,0,0,0-3,0l-8.6,12a1.4,1.4,0,0,0,.9,2.3h3.8c-.1,8-4.7,13.9-8,15.9s-1.5,2.7.5,2.9c16.9,0,18-16.7,18.1-18.8h4a1.4,1.4,0,0,0,.9-2.3" data-name="パス 98437"/><path id="パス_98438" fill="none" stroke="#333" stroke-linejoin="round" stroke-width="3" d="M46.9,14.8l-8.6-12a1.9,1.9,0,0,0-3,0l-8.6,12a1.4,1.4,0,0,0,.9,2.3h3.8c-.1,8-4.7,13.9-8,15.9s-1.5,2.7.5,2.9c16.9,0,18-16.7,18.1-18.8h4a1.4,1.4,0,0,0,.9-2.3Z" data-name="パス 98438"/><path id="パス_98439" fill="#e40b20" d="M20.4,20.3H16.6c.1-8,4.7-13.9,8-15.9s1.5-2.7-.5-2.9C7.1,1.6,6.1,18.3,6,20.3H2.2a1.4,1.4,0,0,0-.9,2.3l8.6,12a1.9,1.9,0,0,0,3,0l8.6-12a1.4,1.4,0,0,0-.9-2.3" data-name="パス 98439"/></g></g></svg>