<svg xmlns="http://www.w3.org/2000/svg" viewBox="0 0 408.35 107.39"><defs><style>.cls-1{fill:#feca1b;}.cls-2{fill:#3761a8;stroke:#3761a8;stroke-miterlimit:10;stroke-width:3px;}.cls-3{fill:#a9a9a9;}.cls-4{fill:#bfbfbf;}.cls-5{fill:#fd0505;}.cls-6{fill:#fefefe;}.cls-7{fill:#cacaca;}.cls-8{fill:#595959;}.cls-9{fill:#fff;}</style></defs><g id="Layer_2" data-name="Layer 2"><g id="Layer_1-2" data-name="Layer 1"><path class="cls-1" d="M90.48,13.81q5-1.62,9.33-3T109,8.2q4.83-1.23,9.26-1.95a41.07,41.07,0,0,1,7-.55,56.71,56.71,0,0,1,7.78.35,21.17,21.17,0,0,1,5.25,1.74A15.58,15.58,0,0,1,142.7,11a16.37,16.37,0,0,1,3.16,4.7,5.83,5.83,0,0,1,.48,2.34c0,3.05-1.7,6.82-5.06,11.28A102.7,102.7,0,0,1,131.17,41q-5.08,5-7.58,7.15L130.87,74l-10.75,7.7L101.5,27.94a4,4,0,0,0-.79.78l-1.83,2Q97.76,32,97.47,32.27a6.23,6.23,0,0,1-.8-1.77c-.44-1.17-1-2.8-1.78-4.9s-1.58-4.41-2.52-7S90.81,14.47,90.48,13.81ZM117,25.29l3.31,12.09q2.55-2.57,6.34-7t3.79-6.46a.79.79,0,0,0-.66-.9,16.27,16.27,0,0,0-3.64-.42A14.93,14.93,0,0,0,117,25.29Z"/><path class="cls-1" d="M177.05,34.83A13.37,13.37,0,0,1,181.76,39a18.3,18.3,0,0,1,2.64,6,27.27,27.27,0,0,1,.82,6.87,34,34,0,0,1-.49,5.69,30,30,0,0,1-1.31,5,16.6,16.6,0,0,1-1.93,3.89,38.5,38.5,0,0,1-5.56,6.61,29.7,29.7,0,0,1-6,4.47A26.92,26.92,0,0,1,163.81,80a23.76,23.76,0,0,1-6,.78,20.15,20.15,0,0,1-6.61-1.11,17.92,17.92,0,0,1-5.33-2.87,19.78,19.78,0,0,1-5.67-8.19,29.24,29.24,0,0,1-2-10.88q0-9.87,5.75-15.91A36.72,36.72,0,0,1,154.07,34a23.19,23.19,0,0,1,16.8-1.79A29.14,29.14,0,0,1,177.05,34.83Zm-2.44,6.87a11.35,11.35,0,0,1-3,5.48q-2.33,2.37-4.54,2.36a3.38,3.38,0,0,1-2-.58,4.18,4.18,0,0,1-1.22-3.44,6.63,6.63,0,0,1,1.26-3.73,8.25,8.25,0,0,1,4-2.89,13.6,13.6,0,0,0-5.23,1,14.55,14.55,0,0,0-4.33,2.62,13.38,13.38,0,0,0-2.9,3.64,8.5,8.5,0,0,0-1.1,4.07,6.91,6.91,0,0,0,3.5,6.08,11.72,11.72,0,0,0,6.22,2.11,7.72,7.72,0,0,0,5.17-1.93,12.51,12.51,0,0,0,3.46-5,16.57,16.57,0,0,0,1.2-6A13.66,13.66,0,0,0,174.61,41.7Z"/><path class="cls-1" d="M178.56,10.75,199.4,2.1l2.87,47.32,17.15-9.33,17.77,2.73L214,60.52l21.77,16.53.93,16.43L204.53,70.23l1,20.12-19.5.3-3.45-71.16-6,1.33Z"/><path class="cls-1" d="M265.65,56.84l9.83,12q-1.2,3.43-5.65,6.29a37.48,37.48,0,0,1-10.58,4.49A46.91,46.91,0,0,1,247,81.19a29.89,29.89,0,0,1-9.64-1.47,13.64,13.64,0,0,1-6.52-4.36q-3.94-5-3.93-12.79a34.46,34.46,0,0,1,2.28-12.1q2.25-6,4.76-8.32a30.36,30.36,0,0,1,6.51-4.69,31,31,0,0,1,7.28-2.8,32.15,32.15,0,0,1,7.74-.92,29.61,29.61,0,0,1,9.89,1.7,24.22,24.22,0,0,1,8.19,4.84L251,67a13.17,13.17,0,0,0,5.68-1.23,16.84,16.84,0,0,0,4.95-3.55A26.19,26.19,0,0,0,265.65,56.84ZM233.38,17.65l21.88-12,9.33,14.45L238.07,25Zm21,29.61a8.84,8.84,0,0,0-4.09-1,10.48,10.48,0,0,0-4.29.89A6.64,6.64,0,0,0,243,49.23a11.5,11.5,0,0,0-2.57,7.2,12.86,12.86,0,0,0,.28,2.74c.19.88.51,2.08,1,3.61Z"/><path class="cls-1" d="M297.44,32.29l17.15-7.64.25,22.89a33.46,33.46,0,0,1,.31,4.84A28.37,28.37,0,0,1,315,55.9L315.38,81l-18.44.92v-2.5a23.83,23.83,0,0,1-9.1,1.82,20.41,20.41,0,0,1-6.61-1.09,17.73,17.73,0,0,1-5.34-2.89,20,20,0,0,1-5.66-8.19,28.84,28.84,0,0,1-2-10.88q0-9.87,5.74-15.91a38,38,0,0,1,10.17-7.79,23.21,23.21,0,0,1,10.68-2.63,21.56,21.56,0,0,1,2.29.09Zm-.35,7.21a13.11,13.11,0,0,0-4.45,1.41,15.24,15.24,0,0,0-3.76,2.69A12.32,12.32,0,0,0,286.43,47a8.48,8.48,0,0,0-.89,3.66,7,7,0,0,0,3.5,6.07,10.25,10.25,0,0,0,8,2l0-8.73a3.38,3.38,0,0,1-2-.58c-.82-.66-1.23-1.91-1.22-3.77A6.92,6.92,0,0,1,297.09,39.5Z"/><path class="cls-1" d="M347.33,31.1a17.27,17.27,0,0,1,4.72,4.67,33.94,33.94,0,0,1,3.24,5.5c.75,1.68,1.26,2.89,1.5,3.63l-15.21,3.31a3.26,3.26,0,0,0-2.16-2.71,10.66,10.66,0,0,0-3.77-.67q-10.39.95-10.44,12.37.26,9.06,5.66,10.1A8.77,8.77,0,0,0,335.54,66a12.09,12.09,0,0,0,3.6-3.36A20.74,20.74,0,0,0,341.63,58l15.19,3.12q-.26.81-1.2,3.27a29.27,29.27,0,0,1-5,7.32,21.78,21.78,0,0,1-8.73,6.4,31.39,31.39,0,0,1-11.48,2.21,24.32,24.32,0,0,1-16.11-6,16.6,16.6,0,0,1-4.63-6.49A21,21,0,0,1,308.24,60a30.35,30.35,0,0,1,1.22-8.39,43.56,43.56,0,0,1,2.93-7.53,37.92,37.92,0,0,1,5-7.54,28.73,28.73,0,0,1,5.69-5.1,23.22,23.22,0,0,1,6.09-2.91,22,22,0,0,1,18.18,2.56Z"/><path class="cls-1" d="M361.58,8l17.93-8-.38,27.52,13.35.38-.05,15.77-13.85.12a87.53,87.53,0,0,0-.77,10.93,41.83,41.83,0,0,0,.47,7.05,5.32,5.32,0,0,0,2,3.52,6.18,6.18,0,0,0,3.81,1.25,6.7,6.7,0,0,0,4.24-1.42,4.74,4.74,0,0,0,1.84-3.93,11.35,11.35,0,0,0-.16-1.43l13.42-8.68a40.23,40.23,0,0,1,2.14,5.37,25.34,25.34,0,0,1,1.26,8.24,17.43,17.43,0,0,1-2.86,9.7q-2.83,4.32-9.69,6.56a29.54,29.54,0,0,1-9.06,1.52,22.23,22.23,0,0,1-11.31-2.86,29.13,29.13,0,0,1-8.11-6.83,14.06,14.06,0,0,1-2.34-6.11,62.68,62.68,0,0,1-1.05-8.89c-.15-3.09-.23-6.17-.22-9.26l0-4.63-12.08.33-3-18.48,15.27,1.07Z"/><path class="cls-2" d="M90.47,16.81q5-1.62,9.33-3T109,11.2q4.83-1.23,9.24-1.95a52.61,52.61,0,0,1,8.67-.71,33.88,33.88,0,0,1,6.1.53,20.73,20.73,0,0,1,5.25,1.72A15.58,15.58,0,0,1,142.69,14a16.37,16.37,0,0,1,3.16,4.7,5.83,5.83,0,0,1,.48,2.34c0,3.05-1.7,6.82-5.06,11.28A102.7,102.7,0,0,1,131.16,44q-5.09,5-7.58,7.15L130.86,77l-10.75,7.7L101.49,30.94a4,4,0,0,0-.79.78l-1.83,2Q97.75,35,97.46,35.27a6.23,6.23,0,0,1-.8-1.77c-.44-1.17-1-2.8-1.78-4.9s-1.58-4.41-2.52-7S90.8,17.47,90.47,16.81Zm2.7,1.69,5,13.41a10.39,10.39,0,0,1,2.24-2.2,4,4,0,0,1,2.16-.94.61.61,0,0,1,.65.5l17.64,52.4L128.53,77l-7.61-27.18A111.51,111.51,0,0,0,131.27,40a72.8,72.8,0,0,0,8.58-10.84c2.18-3.47,3.28-6.26,3.29-8.39a3.91,3.91,0,0,0-.33-1.76,11.51,11.51,0,0,0-2.34-3.64,11.76,11.76,0,0,0-3.31-2.42A15.81,15.81,0,0,0,133,11.57a28.44,28.44,0,0,0-5.12-.45,50.08,50.08,0,0,0-7.17.53c-2.49.36-5.06.86-7.73,1.49s-6,1.5-10.08,2.61S95.6,17.77,93.17,18.5Zm21.11,7.12q2.79-.64,5.11-1.23c1.54-.39,3.11-.72,4.71-1a27,27,0,0,1,4-.38,12.21,12.21,0,0,1,2.58.26A2.64,2.64,0,0,1,133,25.93q0,3.72-5.15,9.65c-3.43,3.94-6.28,7-8.55,9.18Zm2.66,2.67,3.31,12.09q2.55-2.57,6.34-7t3.79-6.46a.79.79,0,0,0-.66-.9,16.27,16.27,0,0,0-3.64-.42A14.93,14.93,0,0,0,116.94,28.29Z"/><path class="cls-2" d="M177,37.83A13.32,13.32,0,0,1,181.75,42a18.3,18.3,0,0,1,2.64,6,27.27,27.27,0,0,1,.82,6.87,34,34,0,0,1-.49,5.69,30,30,0,0,1-1.31,5,16.22,16.22,0,0,1-1.94,3.89,38,38,0,0,1-5.55,6.61,29.7,29.7,0,0,1-6,4.47A26.92,26.92,0,0,1,163.8,83a23.76,23.76,0,0,1-6,.78,20.15,20.15,0,0,1-6.61-1.11,17.8,17.8,0,0,1-5.33-2.87,19.78,19.78,0,0,1-5.67-8.19,29.24,29.24,0,0,1-2-10.88q0-9.87,5.75-15.91A36.72,36.72,0,0,1,154.06,37a23.19,23.19,0,0,1,16.8-1.79A28.86,28.86,0,0,1,177,37.83Zm-1.68,2.08a13,13,0,0,0-9-3.14A19.82,19.82,0,0,0,160,37.88a29,29,0,0,0-6.8,3.37,37.07,37.07,0,0,0-6.55,5.61,20.64,20.64,0,0,0-3.25,4.6,23,23,0,0,0-1.86,5.07,23.35,23.35,0,0,0-.63,5.31,23,23,0,0,0,2,9.65,16.1,16.1,0,0,0,5.49,6.84,15.32,15.32,0,0,0,8.88,2.53,23,23,0,0,0,11.91-3.51,26.15,26.15,0,0,0,9.6-10.27,24.57,24.57,0,0,0,3.4-12.15,19.6,19.6,0,0,0-1.73-8.26A19.92,19.92,0,0,0,175.35,39.91Zm-.75,4.79a13.66,13.66,0,0,1,.47,3.77,16.57,16.57,0,0,1-1.2,6,12.51,12.51,0,0,1-3.46,5,7.72,7.72,0,0,1-5.17,1.93A11.72,11.72,0,0,1,159,59.32a6.91,6.91,0,0,1-3.5-6.08,8.5,8.5,0,0,1,1.1-4.07,13.38,13.38,0,0,1,2.9-3.64,14.57,14.57,0,0,1,4.31-2.62,13.54,13.54,0,0,1,5.24-1,8.27,8.27,0,0,0-4,2.89,6.63,6.63,0,0,0-1.26,3.73A4.15,4.15,0,0,0,165.07,52a3.38,3.38,0,0,0,2,.58q2.22,0,4.54-2.36A11.35,11.35,0,0,0,174.6,44.7Z"/><path class="cls-2" d="M178.55,13.75,199.39,5.1l2.87,47.32,17.15-9.33,17.77,2.73-23.24,17.7,21.77,16.53.93,16.43L204.52,73.23l1,20.12-19.5.3-3.45-71.16-6,1.33ZM231.44,47.8l-11.71-1.71-19.49,9.35L197.37,8.12l-16.82,7-1.37,5.69,5.75-3,3.43,73.82,14.42-.28-.58-22.82,32.12,23.95c0-1.39-.11-3.7-.35-6.92s-.43-4.84-.59-4.84-1.44-1-4.15-2.92S224,74,221.79,72.39l-7-5.14-5.15-3.75Z"/><path class="cls-2" d="M265.64,59.84l9.83,12q-1.2,3.43-5.65,6.29a37.48,37.48,0,0,1-10.58,4.49A46.91,46.91,0,0,1,247,84.19a29.89,29.89,0,0,1-9.64-1.47,13.64,13.64,0,0,1-6.52-4.36q-3.94-5-3.93-12.79a34.46,34.46,0,0,1,2.28-12.1q2.25-6,4.76-8.32a30.55,30.55,0,0,1,6.5-4.69,31.27,31.27,0,0,1,7.29-2.8,32.15,32.15,0,0,1,7.74-.92,29.61,29.61,0,0,1,9.89,1.7,24.22,24.22,0,0,1,8.19,4.84L251,70a13.17,13.17,0,0,0,5.68-1.23,16.84,16.84,0,0,0,4.95-3.55A26.19,26.19,0,0,0,265.64,59.84Zm.24,2.25c0,1.37-1,2.89-2.94,4.58A27.13,27.13,0,0,1,255.81,71a19.37,19.37,0,0,1-7.5,1.78,7.17,7.17,0,0,1-1.84-.18L270.9,43.51a34,34,0,0,0-7.83-3.34,31.35,31.35,0,0,0-8.7-1.26,26.56,26.56,0,0,0-9.84,1.81,23.36,23.36,0,0,0-8.54,6,19.67,19.67,0,0,0-3.31,5,33.82,33.82,0,0,0-3.23,14q0,7.86,4.14,11.93,5.1,4.89,14,4.92a38,38,0,0,0,10.88-1.62,37,37,0,0,0,9.62-4.25q4.07-2.61,5.22-5.18ZM233.37,20.65l21.88-12,9.33,14.45L238.06,28Zm2.34.34L238.39,26l23.16-4-7-11.08Zm5.73,47.82q-1.19-.7-2-3.45a19.89,19.89,0,0,1-.82-5.94q0-6,2.9-9.21A8.87,8.87,0,0,1,244.79,48a11.43,11.43,0,0,1,4.51-.84,13.37,13.37,0,0,1,7.81,2.6Zm12.89-18.55a8.84,8.84,0,0,0-4.09-1,10.48,10.48,0,0,0-4.29.89A6.64,6.64,0,0,0,243,52.23a11.5,11.5,0,0,0-2.57,7.2,12.86,12.86,0,0,0,.28,2.74c.19.88.51,2.08,1,3.61Z"/><path class="cls-2" d="M297.43,35.29l17.14-7.64.26,22.89a33.46,33.46,0,0,1,.31,4.84A28.37,28.37,0,0,1,315,58.9L315.37,84l-18.44.92v-2.5a23.83,23.83,0,0,1-9.1,1.82,20.41,20.41,0,0,1-6.61-1.09,17.73,17.73,0,0,1-5.34-2.89,20,20,0,0,1-5.66-8.19,28.84,28.84,0,0,1-2-10.88q0-9.87,5.74-15.91a38,38,0,0,1,10.17-7.79,23.21,23.21,0,0,1,10.68-2.63,21.56,21.56,0,0,1,2.29.09Zm2,1v1.14a19.2,19.2,0,0,0-2-.08,22,22,0,0,0-5.12.59A29.26,29.26,0,0,0,287,39.84,31.94,31.94,0,0,0,281.51,43a31,31,0,0,0-4.85,4.28,20.1,20.1,0,0,0-3.25,4.6A22.05,22.05,0,0,0,271.55,57a23.77,23.77,0,0,0,1.36,15,16.06,16.06,0,0,0,5.49,6.83q2.73,2,7.86,2a29.93,29.93,0,0,0,13-3l0,5.2L312.71,82l-.19-51.36Zm-2.35,6.18a6.92,6.92,0,0,0-3.22,6.13c0,1.86.4,3.11,1.22,3.77a3.38,3.38,0,0,0,2,.58l0,8.73a10.25,10.25,0,0,1-8-2,7,7,0,0,1-3.5-6.07,8.48,8.48,0,0,1,.89-3.66,12.32,12.32,0,0,1,2.45-3.42,15.24,15.24,0,0,1,3.76-2.69A13.11,13.11,0,0,1,297.08,42.5Z"/><path class="cls-2" d="M347.32,34.1A17.27,17.27,0,0,1,352,38.77a33.94,33.94,0,0,1,3.24,5.5c.75,1.68,1.26,2.89,1.5,3.63l-15.21,3.31a3.26,3.26,0,0,0-2.16-2.71,10.66,10.66,0,0,0-3.77-.67q-10.41.95-10.44,12.37.26,9.06,5.66,10.1A8.79,8.79,0,0,0,335.53,69a12.09,12.09,0,0,0,3.6-3.36A20.74,20.74,0,0,0,341.62,61l15.19,3.12q-.26.81-1.2,3.27a29.27,29.27,0,0,1-5,7.32,21.78,21.78,0,0,1-8.73,6.4,31.39,31.39,0,0,1-11.48,2.21,24.32,24.32,0,0,1-16.11-6,16.6,16.6,0,0,1-4.63-6.49A21,21,0,0,1,308.23,63a30.35,30.35,0,0,1,1.22-8.39,43.56,43.56,0,0,1,2.93-7.53,37.92,37.92,0,0,1,5-7.54,28.73,28.73,0,0,1,5.69-5.1,23.22,23.22,0,0,1,6.09-2.91,22,22,0,0,1,18.18,2.56ZM345.55,36a19.59,19.59,0,0,0-21.13.67q-5.3,3.47-9.34,10.9A46.85,46.85,0,0,0,312,55a26.12,26.12,0,0,0-1.3,7.94q0,8.85,6.75,13.7a21,21,0,0,0,12.6,4.14,27.58,27.58,0,0,0,12.84-3.4,17.43,17.43,0,0,0,3.75-2.93,43.27,43.27,0,0,0,4.07-4.51A15.18,15.18,0,0,0,353,66.36l-9.74-2.08a21.17,21.17,0,0,1-3.21,4.58,13.25,13.25,0,0,1-3.82,2.89,9.24,9.24,0,0,1-4.14,1,9.66,9.66,0,0,1-6.3-2.44q-3.35-2.75-3.33-8.57a20.26,20.26,0,0,1,1.79-8.21,17.13,17.13,0,0,1,5-6.62,11.41,11.41,0,0,1,7.34-2.57,9.13,9.13,0,0,1,4.19.89,5.1,5.1,0,0,1,2.43,3.51l9.84-2.5a10.9,10.9,0,0,0-.53-2.22,13.51,13.51,0,0,0-2.14-3.79A16.41,16.41,0,0,0,345.55,36Z"/><path class="cls-2" d="M361.57,11,379.5,3l-.38,27.52,13.35.38-.05,15.77-13.85.12a87.53,87.53,0,0,0-.77,10.93,41.83,41.83,0,0,0,.47,7,5.32,5.32,0,0,0,2,3.52,6.18,6.18,0,0,0,3.81,1.25,6.7,6.7,0,0,0,4.24-1.42,4.74,4.74,0,0,0,1.84-3.93,11.35,11.35,0,0,0-.16-1.43l13.42-8.68a40.23,40.23,0,0,1,2.14,5.37,25.34,25.34,0,0,1,1.26,8.24,17.43,17.43,0,0,1-2.86,9.7q-2.83,4.32-9.69,6.56a29.54,29.54,0,0,1-9.06,1.52,22.23,22.23,0,0,1-11.31-2.86,29.13,29.13,0,0,1-8.11-6.83,14.06,14.06,0,0,1-2.34-6.11,62.68,62.68,0,0,1-1.05-8.89c-.15-3.09-.23-6.17-.22-9.26l0-4.63-12.08.33-3-18.48,15.27,1.07Zm2.78,1.69.1,20.11-14.25-1,2.61,13.4,11.43-.61c-.06,2-.09,4.79-.11,8.31a106.26,106.26,0,0,0,.48,11.25,28.81,28.81,0,0,0,1.88,8Q371,82.6,383.9,83.22a25.71,25.71,0,0,0,6.74-1,23.61,23.61,0,0,0,6.75-3,16.4,16.4,0,0,0,5.08-5.27,14.14,14.14,0,0,0,2-7.41,23.13,23.13,0,0,0-2-9.1L392,63.79a9,9,0,0,1-1.2,4.89,6.91,6.91,0,0,1-3,2.73,9.38,9.38,0,0,1-3.94.83,8.26,8.26,0,0,1-3.6-.79c-1.77-.53-3-2.07-3.65-4.64a39.09,39.09,0,0,1-1-9.63c0-1.56.07-3.74.19-6.56s.18-4.7.18-5.69l14.42,0-.29-12.08-13.68.32.33-26.54Z"/><path d="M89.1,62.67A44.61,44.61,0,0,1,74.51,95.5,45.73,45.73,0,0,1,58.29,105c-1.14.39-2.29.73-3.43,1.1-.16.06-.42,0-.35.34l-1.53.27a2.58,2.58,0,0,0-1.54.27l-2.3.41c-.21-.47-.62-.21-.91-.19A44.82,44.82,0,0,1,7.85,87.81,44.52,44.52,0,0,1,9.29,35.3,44.47,44.47,0,0,1,37.91,18.48,44.59,44.59,0,0,1,86,46.14a46.93,46.93,0,0,1,2.75,10.22c0,1,.26,2,.32,3.06S89.14,61.58,89.1,62.67Z"/><path class="cls-3" d="M51.44,107a1.24,1.24,0,0,1,1.54-.27Z"/><path class="cls-4" d="M89.1,62.67c-.13-2.1-.25-4.21-.38-6.31A15.8,15.8,0,0,1,89.1,62.67Z"/><path class="cls-5" d="M40.29,22c5.94-1,14.31.13,22.21,4A40.19,40.19,0,0,1,82.29,47.4a43.06,43.06,0,0,1,2,6.21,1.3,1.3,0,0,1-.32,1.31,37.74,37.74,0,0,1-6.43,5.62,71.14,71.14,0,0,1-13,7.37c-2,.88-4.07,1.71-6.16,2.4a.84.84,0,0,1-1.22-.49,11.28,11.28,0,0,0-21.3,3.83c-.08.86-.4,1-1.19,1A73.17,73.17,0,0,1,20.3,73.9,59.33,59.33,0,0,1,5.84,69.82a2.37,2.37,0,0,1-1.66-2.27C2.88,55.19,6.28,44.34,14.6,35.09,20.65,28.37,28.61,24.06,40.29,22Z"/><path class="cls-6" d="M58.63,100.72a35.85,35.85,0,0,1-16.08,2.65A40.65,40.65,0,0,1,7.75,79.53c-.09-.22-.37-.48.1-.62a74.52,74.52,0,0,0,19.52,3.57,92.51,92.51,0,0,0,10.4-.08,1.48,1.48,0,0,1,1.29.47,11.27,11.27,0,0,0,18.35-3.5,1.4,1.4,0,0,1,1-.85A82.16,82.16,0,0,0,80.4,68c1.31-.88,2.57-1.82,4-2.87-.17,1.42-.26,2.64-.47,3.84a41.85,41.85,0,0,1-9.71,20.78,37.13,37.13,0,0,1-13,9.77C60.41,100,59.46,100.22,58.63,100.72Z"/><path class="cls-6" d="M45.76,67.61A7.41,7.41,0,0,1,48.4,82.19a7.41,7.41,0,1,1-2.64-14.58Z"/><path class="cls-7" d="M58.63,100.72a6.25,6.25,0,0,1,2.62-1.19A7.68,7.68,0,0,1,58.63,100.72Z"/><path class="cls-8" d="M7.85,78.91c-.29.17,0,.42-.1.62-.22-.15-.37-.35-.26-.61S7.73,78.76,7.85,78.91Z"/><circle class="cls-9" cx="39.54" cy="44.07" r="3.35"/><path class="cls-9" d="M40.9,51.74a49.06,49.06,0,0,1-6.38.74,29,29,0,0,1-5.66-.23,15.54,15.54,0,0,1-5.33-1.74,4.87,4.87,0,0,1-2.59-3.13,4.65,4.65,0,0,1,1.28-3.68,14.89,14.89,0,0,1,4.17-3.3,31.25,31.25,0,0,1,5.33-2.3,44.55,44.55,0,0,1,6.46-1.64,38.36,38.36,0,0,1,12.26-.37,15.38,15.38,0,0,1,5.15,1.64,4.68,4.68,0,0,1,2.54,3,4.81,4.81,0,0,1-1.43,3.87,15.91,15.91,0,0,1-4.56,3.48A29.79,29.79,0,0,1,47,50.25,46.67,46.67,0,0,1,40.9,51.74ZM38.5,38.26A37.16,37.16,0,0,0,27.29,42a12.88,12.88,0,0,0-3.66,2.87,3,3,0,0,0-.89,2.2,1.86,1.86,0,0,0,.47.88,4.89,4.89,0,0,0,1.25,1,13.55,13.55,0,0,0,4.68,1.51A36.71,36.71,0,0,0,40.58,50a37,37,0,0,0,10.7-3.44,14.5,14.5,0,0,0,4-3.06,3.23,3.23,0,0,0,1-2.37,3,3,0,0,0-1.65-1.77,13.6,13.6,0,0,0-4.52-1.42A36.38,36.38,0,0,0,38.5,38.26Z"/><path class="cls-9" d="M35,62a3.64,3.64,0,0,1-1.9-.13,4.63,4.63,0,0,1-2.55-2.94,14.82,14.82,0,0,1-.77-5.26,31.23,31.23,0,0,1,.66-5.77,46.4,46.4,0,0,1,1.81-6.41h0A38.73,38.73,0,0,1,38,30.66,15.39,15.39,0,0,1,42,27a4.69,4.69,0,0,1,3.89-.69,4.82,4.82,0,0,1,2.64,3.17,16,16,0,0,1,.74,5.69,29.84,29.84,0,0,1-.71,5.51,45.27,45.27,0,0,1-1.76,6,48.41,48.41,0,0,1-2.55,5.9,27.71,27.71,0,0,1-3,4.79,15.23,15.23,0,0,1-4.16,3.74A6.8,6.8,0,0,1,35,62Zm9.44-34A4.38,4.38,0,0,0,43,28.6a13.32,13.32,0,0,0-3.5,3.2A36.67,36.67,0,0,0,34,42.08h0a37.26,37.26,0,0,0-2.37,11.58,13.05,13.05,0,0,0,.66,4.6,3,3,0,0,0,1.46,1.87,1.84,1.84,0,0,0,1,0,5,5,0,0,0,1.49-.58,13.6,13.6,0,0,0,3.64-3.3,36.53,36.53,0,0,0,5.29-10.17,36.73,36.73,0,0,0,2.36-11,14.6,14.6,0,0,0-.63-5,3.23,3.23,0,0,0-1.55-2.06A1.7,1.7,0,0,0,44.43,28Z"/><path class="cls-9" d="M50,59.32a6.33,6.33,0,0,1-2.12,0,14.82,14.82,0,0,1-4.94-1.95,31.42,31.42,0,0,1-4.67-3.46,45.76,45.76,0,0,1-4.65-4.77h0a38.86,38.86,0,0,1-6.47-10.42A15.57,15.57,0,0,1,26,33.41a4.67,4.67,0,0,1,1.35-3.72A4.81,4.81,0,0,1,31.4,29a15.93,15.93,0,0,1,5.3,2.2,29.84,29.84,0,0,1,4.42,3.37,47.29,47.29,0,0,1,4.35,4.54,48.65,48.65,0,0,1,3.84,5.15,28.43,28.43,0,0,1,2.63,5,15.11,15.11,0,0,1,1.17,5.48,4.89,4.89,0,0,1-1.41,3.81A3.63,3.63,0,0,1,50,59.32ZM35,47.93a37.34,37.34,0,0,0,8.86,7.84,12.88,12.88,0,0,0,4.31,1.72,3,3,0,0,0,2.35-.33,1.93,1.93,0,0,0,.53-.84,4.94,4.94,0,0,0,.23-1.59,13.44,13.44,0,0,0-1-4.8,36.24,36.24,0,0,0-6.16-9.66,36.82,36.82,0,0,0-8.33-7.53,14.23,14.23,0,0,0-4.68-2,3.23,3.23,0,0,0-2.56.31,3,3,0,0,0-.7,2.31,13.6,13.6,0,0,0,1,4.63A36.74,36.74,0,0,0,35,47.93Z"/></g></g></svg>